<svg xmlns="http://www.w3.org/2000/svg" xmlns:xlink="http://www.w3.org/1999/xlink" version="1.1" id="Layer_1" x="0px" y="0px" width="342.3934786989504" height="292.0616373302047" viewBox="-297.099 -279.453 1000 853.026" enable-background="new -297.099 -279.453 1000 853.026" xml:space="preserve">
<g>
	<g>
		<path fill="#FFFFFF" d="M26.447-44.206c0,0,9.727-15.564,17.509-18.159c7.785-2.597,19.455-20.108,19.455-20.108    s-1.942-16.217,11.681-27.89c13.622-11.677,38.267-27.889,38.267-27.889l38.271-24.647c0,0,41.512-28.536,51.241-27.236    c9.729,1.296,9.084-14.268,9.084-14.268l11.676-25.301c0,0,11.026-30.483,21.401-33.729c10.379-3.243,12.973-1.293,12.973-1.293    l33.08,42.809l-17.512,25.943l-7.136,14.271l14.918,24.647l44.104,68.755l-14.922,21.404l-23.998,1.295l-5.836,33.082    l6.483,31.779l-20.108,17.508l-22.698,6.488l-55.132-67.459l-12.324-12.324l-7.781-62.267l-39.569,19.458L77.037-75.341    L53.039-44.206H26.447z"/>
		<path fill="#FFFFFF" d="M171.245,11.418c0,0-29.672-40.377,2.271-66.158L281.996,52.448l18.159,36.969l-16.22,95.349l3.241,32.432    l-21.081,7.78l-3.562-19.464c0,0-7.138-4.538-1.297-25.292c0,0-1.944-65.512,4.541-73.294c0,0-2.594-12.974-11.026-21.405    c-8.433-8.432-27.405-23.025-27.405-23.025S168.812,32.009,171.245,11.418z"/>
		<path fill="#FFFFFF" d="M71.191,157.839l-3.243-2.918c0,0,51.891-54.481,60.325-67.454c8.43-12.975,19.462-36.325,22.706-47.35    c3.243-11.028,17.188-29.514,20.269-28.699l29.674,47.513L86.76,173.73L71.191,157.839z"/>
		<path d="M227.352,62.497c-7.905-1.861-32.268-26.432-32.268-26.432c-0.651-0.325-11.888-9.934-14.113-11.839    c-1.134-0.971-7.943-12.646-7.943-12.646l-1.783-0.163v6.323c0,0,3.24,9.568,5.677,12.001c2.433,2.432,9.403,12.324,8.594,18.482    c0,0-1.142,18.329-12.647,24.324c-11.518,6.004-13.622,9.569-31.784,14.268c0,0-0.325,3.729,0.16,3.729    c0.488,0,7.46,3.243,10.543,2.437c3.08-0.81,3.725,0.324,8.754-1.46c5.027-1.785,4.057,1.298,4.057,1.298    s-11.511,4.051-14.433,4.217c-2.918,0.159-19.298,1.133-17.028,4.376c2.273,3.243,4.865,4.376,4.051,5.675    c-0.808,1.296-13.455,5.838-13.132,8.758c0.326,2.918,3.244,0.811,2.918,3.563c-0.323,2.761-21.567,4.703-22.217,3.569    c0,0-1.457,5.027-0.159,6.323c1.297,1.301-12.324,6.163-16.54,12.326c-4.219,6.163-15.566,13.946-16.867,16.215    c-1.297,2.267-6.487,5.192-5.513,15.244c0,0-11.024-5.188-18.161,7.134c0,0-2.273,8.755,5.189,14.271    c7.457,5.513,14.268,26.594,20.429,29.838v3.889h40.536c0,0,1.95-2.592-5.187-1.622c0,0-5.838-9.727-9.081-11.028    c-3.243-1.293-12-4.214-11.675-10.375c0.325-6.163-2.27-4.541,1.947-11.349c4.211-6.813,37.942-59.025,61.298-67.133    c23.351-8.106,14.268-15.244,17.835-11.673c0,0,44.107-46.698,43.455-49.292C212.268,65.74,230.109,63.145,227.352,62.497z"/>
		<path d="M265.778,230.493l1.942-16.22c0,0,2.597-2.271,3.568-2.916c0.975-0.647-9.404-3.566-10.377-7.138    c-0.977-3.564-1.949-9.728-1.949-11.999c0-2.271,0-12.321,6.166-17.515c0,0,4.863-10.375,6.16-10.054    c1.295,0.326-0.975-3.243-1.949-3.563c-0.968-0.325-1.939-0.325-2.594-6.166c-0.65-5.838,1.626-6.814,2.276-7.134    c0.647-0.325,1.944-1.944,2.267-4.541c0.33-2.596-1.292-0.646-4.538-1.945c0,0-2.922-2.598-2.272-4.864    c0.652-2.272,7.46-22.058,19.459-32.106c0,0,7.133-11.997,4.866-13.946c-2.27-1.947-1.622-2.269-4.866,1.296    c-3.244,3.566-4.216,3.894-5.188,3.894c-0.972,0-9.404-3.573-11.998-19.138c-2.597-15.569-4.864-24.972-8.758-27.568    c-3.892-2.597-2.597-7.134-16.542-14.271c-13.941-7.134-19.779-10.051-23.995-14.916c-4.217-4.865-6.813-8.434-8.105-15.244    c-1.297-6.812-5.516-5.513-8.759-6.812c-3.243-1.296-19.46-4.542-23.028-13.622c0,0-3.243-4.54,20.758,5.514    c0,0,9.402,2.271-12.329-9.408c0,0-8.427-5.835-8.75-11.348c-0.324-5.51,8.428-5.51,7.784-9.728c0,0,0.973-2.918-4.704-5.191    c-5.676-2.267-6.647-6.646-6.812-8.588c-0.16-1.947-1.622-6.974-1.622-6.974s-3.563-6.003-6.483-7.782    c0,0-6.974-13.297-6.651-16.54c0.326-3.244,0.326-14.271,0.326-14.271s0.32-0.977-1.299-1.622    c-1.616-0.651-14.591,6.485-25.295,10.049c-10.703,3.568-55.458,17.188-58.051,25.295c-2.594,8.107-7.136,15.565-7.783,22.378    c-0.649,6.812-6.485,10.377-6.485,10.377s-3.896,4.54-2.271,7.46c1.621,2.923-9.081-2.595-6.814-10.052    c2.271-7.459-9.404,9.081-9.404,11.672c-0.002,2.598-12.972-9.081-14.59-16.535c-1.622-7.461,3.894-5.839,3.894-5.839l5.51,2.917    c0,0,16.54-15.242,17.511-14.271c0,0,7.461-8.432,7.461-9.728s2.271-3.889,2.271-4.214c0-0.326,8.755-10.055,9.729-10.055    c0.976,0,11.676-8.107,11.676-8.107s1.623-1.949-1.947-3.243c-3.567-1.297-5.185-0.325-3.244-2.925    c1.947-2.593,6.487-3.564,9.083-3.564c2.595,0,10.057,2.596,12.323,2.596c2.273,0,2.273,0,3.244-1.622    c0.976-1.621-3.889-2.917-5.511-3.565c-1.621-0.648-7.137-0.973-7.137-0.973s0.329-4.865,6.489-4.214    c6.158,0.647,9.726,0.976,16.538,6.49c0,0,8.757,1.942,8.43-2.271c-0.322-4.216-7.461-3.243-9.728-8.107    c-2.268-4.865,11.348-2.597,16.865-4.219c5.514-1.622,12.972-3.889,13.622-7.132c0.646-3.243-10.055-5.192,3.567-9.73    c0,0,10.702,0.325,9.078-3.244c-1.622-3.567-4.216-3.243-4.216-6.485s15.243-1.944,15.894-4.539c0,0,7.131-5.513,7.131-7.462    c0-1.947,4.542-2.59,2.272,24.647c0,0,3.243,11.679,5.836,14.597c2.598,2.92-7.788,14.593-7.134,20.753    c0,0-2.918,9.404-2.271,12.646c0.649,3.248,1.947,12.324,7.136,22.056c0,0-4.865,4.536,2.92,7.134    c7.781,2.597,11.673,7.137,15.241,9.73c3.568,2.596,41.185,51.242,44.749,51.568c3.566,0.32,11.999,2.267,5.516-4.542    c-6.488-6.808-33.407-30.484-34.701-38.267c0,0-0.647-6.812,7.779,2.918c8.436,9.728,33.405,28.863,44.757,28.863    c11.351,0.005,10.054-4.536,10.054-4.536s-0.975-1.947-2.924-2.271c-1.939-0.328-45.726-9.731-44.751-27.244    c0,0-0.322-4.54,6.488,1.298c6.813,5.836,12.976,5.51,16.542,5.51s10.055-1.621,11.676-4.214    c1.622-2.597-44.431-3.894-57.731-22.703c0,0-0.809-2.918,5.188-3.731c0,0,25.134-18.158,9.241,2.92c0,0-1.295,4.38,3.243,0.488    c0,0,31.785-29.352,33.571-42.646c0,0,4.863-4.865,3.239,2.432c-1.622,7.296-9.732,27.725-19.296,38.266    c0,0-1.622,5.354,5.507-1.782c7.142-7.137,24.651-23.999,25.79-64.052c1.136-40.054-8.435-50.428-8.435-50.428h-2.105    c0,0,3.241,21.562,2.758,23.187c0,0-2.597,34.702-18.492,54.157c-15.89,19.458-36.812,37.134-51.239,37.947    c0,0-2.27-2.92,4.541-6.974c6.81-4.054,18.973-12.164,22.54-16.864c3.57-4.704,7.945-12.326-2.272-6.002    c-10.213,6.323-16.051,10.055-18.973,10.542c-2.918,0.485-11.676,0.971-4.54-7.625c0,0,3.894-0.97,5.189-2.267    c1.296-1.301,4.216-7.786,3.735-10.219c-0.491-2.429,0.322-5.024,6.483-7.945c6.165-2.919,17.028-7.781,20.272-13.459    c3.238-5.672,1.294-4.539-1.622-2.752c-2.919,1.781-13.294,9.403-16.701,9.403c-3.403,0-10.377-2.271-1.949-10.865    c8.437-8.592,24.815-5.35,37.137-28.539c0,0,1.622-3.888-2.27-1.296c-3.891,2.595-5.352,1.622-5.352,1.622    s-7.458-3.245-12.165-12.324c-4.695-9.081-9.725-27.243-9.725-27.243s4.219-5.348,6.811,5.677    c2.597,11.025,6.004,15.565,6.004,15.565s6.161,10.704,8.105-1.297c1.949-11.998-0.323-19.294-1.136-21.081    c-0.809-1.782,2.271-1.131,4.216,3.243c1.944,4.381,12.162,18.649,18.81,2.918c0,0,3.08-5.027,0.163-8.916l5.029-0.487    l0.973-3.243l3.239-2.92c0,0,5.838,0.976,4.868-4.54c-0.975-5.512-1.624-3.892-1.624-3.892l0.327-7.459    c0,0-2.922-5.514-8.11-1.298c-5.184,4.219-7.13,0.647-8.428-1.296c-1.299-1.944-10.704-3.244-10.704-3.244    s-9.082,0.326-8.759,7.462c0,0-8.105,1.296-8.105,9.403l-3.566,4.216l-16.54-0.32c0,0-4.868-11.033-3.568-18.165    c1.294-7.136,3.568-8.758,11.026-4.541c0,0,18.159-11.999,40.217-11.999c0,0-13.298-7.137-13.62-11.674    c-0.322-4.539,6.482-5.189,6.482-5.189s-0.967-8.752,2.922-8.428c0,0,8.107-7.139,34.377,23.998c0,0,11.679-0.971,23.673,24.647    c0,0-6.161,10.704-23.03,10.379c0,0-23.998,22.052-22.054,26.592c1.949,4.539,6.488,0.325,23.681,12.651    c0,0,11.666,11.35,16.859,38.266c0,0,6.811,17.191,22.051,26.268c15.245,9.083,4.868,31.134,0,33.729    c-4.863,2.598-15.89,17.513-36.969,6.163c0,0-12.328,1.945-4.868,11.999c7.458,10.052,4.868,12.972,2.271,17.191    c-2.599,4.216,13.294,10.702,10.372,22.375c-2.919,11.675,3.242,6.161-19.781,37.621c0,0-1.622,1.622,1.947,2.916    c3.568,1.3,4.868,11.353,4.868,11.353s4.539,12.647,12.971,16.215c0,0,2.27,10.057,3.239,10.703    c0.978,0.651,4.216,9.406,9.402,10.702c5.19,1.296,0.325,16.864,0.325,16.864s-8.107,23.674-7.783,25.945    c0.327,2.27-7.787,71.672-3.889,78.81c0,0,27.236,19.783,28.534,17.837c1.297-1.947,22.051,11.349,22.051,11.349L265.778,230.493z    "/>
		<path fill="#FFFFFF" d="M286.864-81.817c0,0-11.347-1.299-0.973-5.838c10.377-4.541,11.35-5.187,12.648-5.187    c1.295,0,5.188-0.976,11.677,2.92c6.485,3.889,4.538,6.486-2.276,4.214c-6.811-2.267-13.619-1.293-5.187,5.189    c8.435,6.486,1.622,9.403-2.271,4.219C296.594-81.494,286.864-81.817,286.864-81.817z"/>
		<path fill="#FFFFFF" d="M272.269-75.659c0,0,4.868-6.161,12.324-0.644c0,0,4.216,3.238-5.834,8.754c0,0-6.49-0.002-6.813,11.024    c0,0,0.652,4.54-3.889,7.783c-4.544,3.243-23.678,14.268-13.946-5.188C263.836-73.389,272.269-75.659,272.269-75.659z"/>
	</g>
	<path d="M400.354,242.603h-549.607v-522.055h549.607V242.603z M-132.003,225.354h515.108v-487.556h-515.108V225.354z"/>
	<path d="M35.545,206.522v-3.338h2.078c1.126,0,2.657,0.102,2.657,1.53c0,1.531-0.782,1.808-2.107,1.808H35.545z M35.545,208.871   h1.398l3.203,5.826h3.504l-3.539-6.064c1.841-0.137,3.337-1.059,3.337-3.614c0-3.167-2.112-4.188-5.689-4.188h-5.178v13.866h2.961   v-5.826H35.545z M50.603,207.778c0-8.136-6.102-12.874-12.911-12.874c-6.848,0-12.945,4.738-12.945,12.874   c0,8.146,6.097,12.882,12.945,12.882C44.501,220.66,50.603,215.925,50.603,207.778z M46.888,207.778   c0,5.933-4.223,9.917-9.196,9.917v-0.033c-5.108,0.033-9.234-3.951-9.234-9.886c0-5.925,4.126-9.879,9.234-9.879   C42.665,197.9,46.888,201.852,46.888,207.778z"/>
	<path d="M-294.771,406.938c-2.173-1.032-2.328-1.627-2.328-5.619c0-7.393,0.621-13.306,0.776-15.673   c0.155-1.625,0.468-2.363,1.242-2.363c0.931,0,1.086,0.445,1.086,1.627c0,1.328,0,3.397,0.467,5.467   c2.328,10.945,12.574,15.084,22.976,15.084c14.903,0,22.201-10.203,22.201-19.663c0-10.206-4.503-16.116-17.854-26.613   l-6.986-5.473c-16.457-12.865-20.182-22.029-20.182-32.083c0-15.82,12.418-26.614,32.136-26.614c6.054,0,10.556,0.59,14.438,1.48   c2.949,0.59,4.191,0.741,5.434,0.741c1.242,0,1.552,0.294,1.552,1.035c0,0.738-0.621,5.616-0.621,15.668   c0,2.366-0.31,3.4-1.086,3.4c-0.933,0-1.087-0.738-1.243-1.92c-0.155-1.776-1.087-5.767-2.018-7.393   c-0.931-1.625-5.124-7.836-19.406-7.836c-10.713,0-19.096,6.355-19.096,17.148c0,8.428,4.347,13.457,18.94,24.84l4.347,3.254   c18.319,13.751,22.666,22.917,22.666,34.745c0,6.064-2.483,17.3-13.196,24.546c-6.676,4.433-15.059,6.209-23.442,6.209   C-281.264,410.93-288.405,409.896-294.771,406.938z"/>
	<path d="M-189.511,365.981c0,14.196,0,25.875,0.776,32.081c0.466,4.288,1.397,7.545,6.055,8.134   c2.173,0.294,5.589,0.592,6.986,0.592c0.931,0,1.242,0.443,1.242,0.886c0,0.739-0.776,1.18-2.484,1.18   c-8.539,0-18.319-0.443-19.095-0.443c-0.776,0-10.558,0.443-15.215,0.443c-1.707,0-2.483-0.294-2.483-1.18   c0-0.445,0.311-0.886,1.242-0.886c1.397,0,3.261-0.298,4.658-0.592c3.104-0.589,3.881-3.841,4.501-8.134   c0.777-6.206,0.777-17.89,0.777-32.081V339.96c0-23.066,0-27.208-0.311-31.938c-0.311-5.025-1.864-7.542-5.278-8.278   c-1.709-0.443-3.727-0.593-4.813-0.593c-0.621,0-1.242-0.293-1.242-0.885c0-0.886,0.776-1.182,2.484-1.182   c5.123,0,14.904,0.445,15.681,0.445c0.776,0,10.556-0.445,15.214-0.445c1.708,0,2.483,0.296,2.483,1.182   c0,0.592-0.621,0.885-1.242,0.885c-1.086,0-2.018,0.149-3.88,0.448c-4.192,0.738-5.434,3.249-5.745,8.428   c-0.31,4.73-0.31,8.87-0.31,31.934V365.981z"/>
	<path d="M-24.952,389.789c0.621,5.32,1.708,13.602,8.383,15.671c4.503,1.328,8.54,1.328,10.092,1.328   c0.776,0,1.242,0.149,1.242,0.741c0,0.886-1.397,1.329-3.259,1.329c-3.416,0-20.184-0.443-25.927-0.884   c-3.571-0.296-4.347-0.741-4.347-1.479c0-0.587,0.311-0.884,1.086-1.035c0.776-0.145,0.932-2.661,0.621-5.323l-7.452-76.29h-0.466   l-38.036,76.882c-3.26,6.508-3.727,7.839-5.124,7.839c-1.086,0-1.863-1.48-4.813-6.804c-4.036-7.241-17.387-32.819-18.163-34.302   c-1.398-2.662-18.785-38.144-20.493-42.138h-0.622l-6.21,68.604c-0.155,2.365-0.155,5.026-0.155,7.537   c0,2.219,1.709,4.144,4.037,4.584c2.639,0.592,4.968,0.738,5.899,0.738c0.621,0,1.242,0.297,1.242,0.741   c0,1.035-0.931,1.329-2.794,1.329c-5.744,0-13.196-0.443-14.439-0.443c-1.397,0-8.849,0.443-13.041,0.443   c-1.552,0-2.639-0.294-2.639-1.329c0-0.444,0.776-0.741,1.552-0.741c1.242,0,2.33,0,4.658-0.442   c5.123-0.886,5.589-6.654,6.21-12.273l11.178-96.399c0.311-1.624,0.776-2.659,1.708-2.659c0.932,0,1.552,0.59,2.329,2.217   l47.506,92.999l45.643-92.853c0.621-1.33,1.242-2.365,2.328-2.365s1.552,1.179,1.863,3.99L-24.952,389.789z"/>
	<path d="M13.392,348.682c0-32.38,19.406-48.641,45.333-48.641c24.529,0,47.195,19.074,47.195,54.558   c0,43.026-28.875,50.715-42.848,50.715C35.126,405.311,13.392,383.133,13.392,348.682z M-1.356,352.825   c0,26.613,17.697,58.104,60.236,58.104c37.415,0,61.943-27.354,61.943-60.47c0-34.449-26.082-55.446-61.012-55.446   C16.962,295.014-1.356,328.871-1.356,352.825z"/>
	<path d="M155.616,388.754c0.311,12.124,1.862,15.965,6.055,17.151c2.95,0.739,6.365,0.883,7.762,0.883   c0.776,0,1.243,0.299,1.243,0.889c0,0.886-0.932,1.182-2.795,1.182c-8.849,0-15.059-0.443-16.456-0.443   c-1.398,0-7.918,0.443-14.905,0.443c-1.552,0-2.483-0.147-2.483-1.182c0-0.59,0.466-0.889,1.242-0.889   c1.242,0,4.037-0.146,6.365-0.883c3.882-1.037,4.658-5.323,4.658-18.777l0.155-84.721c0-5.767,0.466-7.394,1.708-7.394   s3.881,3.252,5.434,4.731c2.329,2.515,25.461,26.317,49.368,50.715c15.368,15.668,32.288,33.71,37.257,38.588l-1.706-75.109   c-0.154-9.608-1.242-12.862-6.055-14.047c-2.792-0.587-6.363-0.738-7.604-0.738c-1.088,0-1.242-0.443-1.242-1.035   c0-0.883,1.242-1.034,3.104-1.034c6.983,0,14.435,0.445,16.146,0.445c1.706,0,6.832-0.445,13.194-0.445   c1.706,0,2.797,0.151,2.797,1.034c0,0.592-0.621,1.035-1.709,1.035c-0.774,0-1.862,0-3.726,0.445   c-5.123,1.034-5.746,4.286-5.746,13.158l-0.309,86.644c0,9.756-0.313,10.497-1.397,10.497c-1.242,0-3.104-1.624-11.332-9.462   c-1.709-1.48-24.065-23.213-40.521-40.068c-18.009-18.481-35.549-37.113-40.517-42.437L155.616,388.754z"/>
	<path d="M359.767,403.092c-17.39,0-31.051-13.303-31.051-31.784c0-11.828,5.897-19.813,13.972-24.84   c4.349,6.062,14.282,16.559,18.32,20.695c4.036,4.145,19.406,18.188,28.099,24.991   C383.826,397.326,374.205,403.092,359.767,403.092z M354.333,410.93c22.975,0,35.24-12.568,38.812-15.967   c17.076,12.865,20.802,13.9,32.29,13.9h15.217c1.394,0,2.638-0.443,2.638-1.035c0-0.886-0.772-1.035-2.174-1.035   c-5.59,0-13.505-2.96-18.477-5.766c-4.347-2.368-11.176-6.357-21.421-14.637c6.832-7.984,15.368-22.919,15.368-34.894   c0-1.482-0.464-2.662-2.794-2.958c-8.692-0.888-14.905-1.034-18.631-1.034c-1.242,0-2.483,0.296-2.483,1.034   c0,0.739,0.932,1.035,1.862,1.035c2.325,0,5.588,0.445,7.607,2.365c2.327,2.219,2.95,5.027,2.95,7.246   c0,9.018-3.571,18.925-7.92,24.544c-4.967-3.992-24.065-20.999-29.34-26.467c-16.147-16.706-24.529-26.317-24.529-37.85   c0-13.899,10.403-19.367,19.716-19.367c6.83,0,12.109,3.104,15.527,6.505c3.879,3.843,4.811,8.724,4.811,12.569   c0,2.216,0.151,2.811,0.931,2.811c0.621,0,1.086-0.296,1.555-2.513c0.465-2.216,1.086-12.568,1.086-17.002   c0-1.773-0.156-2.661-2.02-3.696c-4.192-2.216-10.867-3.696-18.785-3.696c-20.802,0-33.378,15.524-33.378,27.206   c0,6.651,1.862,12.716,7.609,20.402c-12.109,6.803-23.755,18.335-23.755,35.63C316.605,391.12,327.166,410.93,354.333,410.93z"/>
	<g>
		<path d="M-149.241,569.578c-2.173-1.034-2.328-1.627-2.328-5.619c0-7.393,0.621-13.306,0.776-15.674    c0.155-1.624,0.466-2.362,1.242-2.362c0.932,0,1.087,0.444,1.087,1.626c0,1.329,0,3.398,0.465,5.468    c2.33,10.942,12.575,15.084,22.978,15.084c14.903,0,22.2-10.203,22.2-19.663c0-10.206-4.501-16.116-17.854-26.613l-6.986-5.473    c-16.456-12.865-20.182-22.029-20.182-32.083c0-15.82,12.42-26.614,32.136-26.614c6.055,0,10.558,0.59,14.438,1.48    c2.95,0.59,4.192,0.741,5.434,0.741c1.243,0,1.553,0.294,1.553,1.035c0,0.738-0.622,5.616-0.622,15.668    c0,2.366-0.311,3.4-1.086,3.4c-0.932,0-1.087-0.738-1.242-1.92c-0.155-1.776-1.086-5.767-2.018-7.393    c-0.931-1.625-5.124-7.836-19.406-7.836c-10.712,0-19.095,6.355-19.095,17.148c0,8.428,4.347,13.457,18.94,24.84l4.346,3.254    c18.319,13.751,22.667,22.917,22.667,34.745c0,6.064-2.483,17.3-13.196,24.546c-6.676,4.433-15.059,6.209-23.443,6.209    C-135.735,573.57-142.876,572.536-149.241,569.578z"/>
		<path d="M-55.938,557.604c-15.059-12.865-18.782-29.72-18.782-43.767c0-9.908,3.57-27.206,17.387-40.364    c9.315-8.87,23.443-15.82,47.351-15.82c6.21,0,14.903,0.442,22.51,1.773c5.9,1.035,10.868,1.923,15.836,2.217    c1.708,0.148,2.018,0.741,2.018,1.626c0,1.185-0.466,2.956-0.776,8.278c-0.311,4.881-0.311,13.013-0.466,15.233    c-0.155,2.214-0.466,3.104-1.398,3.104c-1.086,0-1.242-1.035-1.242-3.104c0-5.771-2.483-11.83-6.52-15.084    c-5.434-4.433-17.387-8.428-31.05-8.428c-20.648,0-30.273,5.767-35.707,10.796c-11.333,10.348-13.972,23.507-13.972,38.586    c0,28.242,22.821,54.117,56.043,54.117c11.644,0,20.804-1.333,27.014-7.393c3.26-3.251,5.278-9.761,5.745-12.423    c0.31-1.622,0.621-2.216,1.552-2.216c0.776,0,1.086,1.034,1.086,2.216c0,1.035-1.863,13.902-3.416,18.93    c-0.932,2.809-1.242,3.104-4.036,4.284c-6.21,2.367-18.009,3.402-27.946,3.402C-27.992,573.57-43.673,568.101-55.938,557.604z"/>
		<path d="M155.508,528.622c0,14.196,0,25.875,0.776,32.081c0.465,4.288,1.396,7.545,6.055,8.134    c2.174,0.294,5.589,0.593,6.986,0.593c0.931,0,1.242,0.442,1.242,0.885c0,0.741-0.776,1.18-2.483,1.18    c-8.538,0-18.319-0.443-19.096-0.443c-0.776,0-10.556,0.443-15.214,0.443c-1.707,0-2.484-0.294-2.484-1.18    c0-0.445,0.31-0.885,1.243-0.885c1.397,0,3.26-0.299,4.657-0.593c3.105-0.589,3.882-3.841,4.502-8.134    c0.776-6.206,0.776-17.89,0.776-32.081v-15.524c0-0.592-0.465-0.888-0.931-0.888H75.711c-0.466,0-0.932,0.151-0.932,0.888v15.524    c0,14.196,0,25.875,0.776,32.081c0.466,4.288,1.397,7.545,6.055,8.134c2.173,0.294,5.589,0.593,6.986,0.593    c0.931,0,1.242,0.442,1.242,0.885c0,0.741-0.776,1.18-2.484,1.18c-8.539,0-18.319-0.443-19.095-0.443    c-0.776,0-10.558,0.443-15.215,0.443c-1.707,0-2.483-0.294-2.483-1.18c0-0.445,0.311-0.885,1.242-0.885    c1.397,0,3.261-0.299,4.658-0.593c3.104-0.589,3.881-3.841,4.503-8.134c0.776-6.206,0.776-17.89,0.776-32.081v-26.021    c0-23.066,0-27.208-0.311-31.938c-0.311-5.025-1.553-7.394-6.675-8.428c-1.243-0.294-3.882-0.445-5.279-0.445    c-0.621,0-1.242-0.296-1.242-0.883c0-0.889,0.776-1.185,2.483-1.185c6.986,0,16.767,0.448,17.543,0.448    c0.776,0,10.556-0.448,15.214-0.448c1.708,0,2.483,0.296,2.483,1.185c0,0.587-0.621,0.883-1.242,0.883    c-1.086,0-2.018,0.151-3.88,0.445c-4.192,0.741-5.434,3.251-5.745,8.428c-0.311,4.73-0.311,8.872-0.311,31.938v3.104    c0,0.739,0.466,0.886,0.932,0.886h65.825c0.466,0,0.931-0.149,0.931-0.886v-3.104c0-23.066,0-27.208-0.31-31.938    c-0.311-5.025-1.552-7.394-6.676-8.428c-1.242-0.294-3.882-0.445-5.279-0.445c-0.621,0-1.242-0.296-1.242-0.883    c0-0.889,0.776-1.185,2.484-1.185c6.987,0,16.767,0.448,17.543,0.448c0.776,0,10.558-0.448,15.215-0.448    c1.708,0,2.483,0.296,2.483,1.185c0,0.587-0.621,0.883-1.242,0.883c-1.086,0-2.019,0.151-3.882,0.445    c-4.192,0.741-5.434,3.251-5.744,8.428c-0.311,4.73-0.311,8.872-0.311,31.938V528.622L155.508,528.622z"/>
		<path d="M195.559,502.601c0-23.063,0-27.203-0.308-31.934c-0.313-5.03-1.555-7.394-6.675-8.428    c-1.242-0.299-3.881-0.448-5.279-0.448c-0.621,0-1.242-0.293-1.242-0.885c0-0.886,0.776-1.182,2.485-1.182    c6.986,0,16.453,0.445,17.855,0.445c1.396,0,10.709-0.445,15.369-0.445c1.706,0,2.483,0.296,2.483,1.182    c0,0.592-0.62,0.885-1.241,0.885c-1.088,0-2.017,0.149-3.88,0.448c-4.191,0.587-5.434,3.249-5.746,8.428    c-0.309,4.73-0.309,8.87-0.309,31.934v20.698c0,21.291,4.968,30.459,11.643,36.521c7.604,6.801,14.594,8.131,23.439,8.131    c9.473,0,18.785-4.288,24.381-10.646c7.135-8.427,8.997-20.994,8.997-36.222v-18.482c0-23.063,0-27.203-0.308-31.934    c-0.313-5.03-1.555-7.394-6.676-8.428c-1.241-0.299-3.879-0.448-5.279-0.448c-0.621,0-1.242-0.296-1.242-0.885    c0-0.886,0.775-1.182,2.483-1.182c6.988,0,15.526,0.445,16.456,0.445c1.088,0,8.384-0.445,13.043-0.445    c1.709,0,2.483,0.296,2.483,1.182c0,0.589-0.621,0.885-1.242,0.885c-1.085,0-2.014,0-3.879,0.448    c-4.189,0.736-5.432,3.249-5.744,8.428c-0.308,4.73-0.308,8.87-0.308,31.934v15.82c0,15.968-1.87,33.713-14.288,44.208    c-11.173,9.462-22.823,10.941-31.979,10.941c-5.275,0-20.956-0.589-31.98-10.499c-7.608-6.945-13.507-17.298-13.507-38.882    v-21.589H195.559z"/>
		<path d="M317.277,569.578c-2.176-1.034-2.329-1.627-2.329-5.619c0-7.393,0.62-13.306,0.774-15.674    c0.151-1.624,0.465-2.362,1.242-2.362c0.934,0,1.085,0.444,1.085,1.626c0,1.329,0,3.398,0.465,5.468    c2.324,10.942,12.573,15.084,22.977,15.084c14.901,0,22.197-10.203,22.197-19.663c0-10.206-4.497-16.116-17.851-26.613    l-6.989-5.473c-16.455-12.865-20.181-22.029-20.181-32.083c0-15.82,12.418-26.614,32.137-26.614c6.055,0,10.555,0.59,14.438,1.48    c2.951,0.59,4.192,0.741,5.435,0.741c1.241,0,1.55,0.294,1.55,1.035c0,0.738-0.621,5.616-0.621,15.668    c0,2.366-0.309,3.4-1.088,3.4c-0.929,0-1.083-0.738-1.242-1.92c-0.153-1.776-1.082-5.767-2.017-7.393    c-0.934-1.625-5.12-7.836-19.405-7.836c-10.714,0-19.094,6.355-19.094,17.148c0,8.428,4.347,13.457,18.941,24.84l4.347,3.254    c18.32,13.751,22.664,22.917,22.664,34.745c0,6.064-2.485,17.3-13.194,24.546c-6.676,4.433-15.061,6.209-23.444,6.209    C330.78,573.57,323.64,572.536,317.277,569.578z"/>
		<path d="M442.56,528.622c0,14.196,0,25.875,0.774,32.081c0.467,4.288,1.396,7.545,6.055,8.134    c2.176,0.294,5.588,0.593,6.989,0.593c0.929,0,1.241,0.442,1.241,0.885c0,0.741-0.777,1.18-2.483,1.18    c-8.538,0-18.323-0.443-19.098-0.443c-0.775,0-10.555,0.443-15.214,0.443c-1.709,0-2.483-0.294-2.483-1.18    c0-0.445,0.308-0.885,1.241-0.885c1.396,0,3.259-0.299,4.659-0.593c3.104-0.589,3.879-3.841,4.5-8.134    c0.775-6.206,0.775-17.89,0.775-32.081V466.08l-22.973,0.296c-9.626,0.146-13.352,1.182-15.84,4.731    c-1.703,2.515-2.171,3.544-2.638,4.584c-0.467,1.182-0.929,1.478-1.55,1.478c-0.467,0-0.779-0.442-0.779-1.331    c0-1.479,3.104-14.195,3.417-15.377c0.309-0.884,0.929-2.809,1.55-2.809c1.088,0,2.643,1.478,6.835,1.773    c4.5,0.445,10.4,0.739,12.263,0.739h58.221c9.932,0,14.124-1.478,15.365-1.478c0.777,0,0.777,0.885,0.777,1.773    c0,4.435-0.464,14.639-0.464,16.266c0,1.333-0.467,1.92-1.086,1.92c-0.774,0-1.087-0.442-1.241-2.513l-0.154-1.626    c-0.621-4.436-4.192-7.836-19.098-8.132l-19.563-0.296V528.622L442.56,528.622z"/>
		<path d="M510.558,502.601c0-23.063,0-27.203-0.313-31.934c-0.308-5.03-1.55-7.394-6.675-8.428    c-1.242-0.299-3.88-0.448-5.277-0.448c-0.621,0-1.242-0.293-1.242-0.885c0-0.886,0.774-1.182,2.486-1.182    c6.983,0,16.764,0.445,17.54,0.445c1.083,0,31.98,0,35.552-0.149c2.947-0.149,5.434-0.443,6.676-0.741    c0.774-0.149,1.393-0.736,2.175-0.736c0.465,0,0.621,0.587,0.621,1.328c0,1.035-0.774,2.811-1.241,6.947    c-0.159,1.48-0.467,7.985-0.78,9.759c-0.154,0.741-0.462,1.627-1.083,1.627c-0.934,0-1.241-0.739-1.241-1.921    c0-1.037-0.159-3.552-0.937-5.323c-1.085-2.368-2.635-4.142-11.021-5.024c-2.638-0.299-19.561-0.447-21.269-0.447    c-0.621,0-0.934,0.447-0.934,1.481v40.808c0,1.034,0.158,1.479,0.934,1.479c2.017,0,21.114,0,24.686-0.298    c3.728-0.294,5.898-0.588,7.297-2.07c1.085-1.179,1.703-1.92,2.324-1.92c0.467,0,0.78,0.294,0.78,1.182s-0.78,3.4-1.242,8.281    c-0.313,2.955-0.621,8.427-0.621,9.462c0,1.184,0,2.811-1.088,2.811c-0.774,0-1.088-0.592-1.088-1.333c0-1.478,0-2.955-0.62-4.876    c-0.621-2.069-2.015-4.582-8.069-5.179c-4.192-0.442-19.564-0.736-22.205-0.736c-0.772,0-1.085,0.443-1.085,1.035v13.01    c0,5.026-0.154,22.178,0,25.282c0.467,10.204,2.797,12.124,18.011,12.124c4.04,0,10.867,0,14.905-1.627    c4.036-1.624,5.898-4.579,6.986-10.642c0.313-1.627,0.621-2.219,1.394-2.219c0.934,0,0.934,1.185,0.934,2.219    c0,1.18-1.242,11.238-2.015,14.338c-1.088,3.849-2.329,3.849-8.384,3.849c-23.444,0-33.846-0.889-38.348-0.889    c-0.777,0-10.558,0.445-15.214,0.445c-1.706,0-2.488-0.296-2.488-1.182c0-0.445,0.313-0.886,1.241-0.886    c1.401,0,3.264-0.296,4.659-0.592c3.107-0.59,3.884-3.841,4.505-8.134c0.777-6.206,0.777-17.89,0.777-32.081v-26.031H510.558z"/>
		<path d="M611.467,467.114c0-0.886,0.467-1.478,1.241-1.773c1.55-0.445,5.742-0.888,10.401-0.888    c16.609,0,26.856,11.089,26.856,29.571c0,11.233-4.036,19.223-9.47,22.77c-3.568,2.366-7.917,2.809-11.647,2.809    c-6.827,0-13.972-1.034-16.297-2.365c-0.777-0.443-1.085-1.035-1.085-1.773V467.114z M599.044,528.622    c0,14.196,0,25.875-0.774,32.081c-0.621,4.288-1.394,7.545-4.5,8.134c-1.398,0.294-3.261,0.593-4.659,0.593    c-0.934,0-1.242,0.442-1.242,0.885c0,0.886,0.777,1.18,2.483,1.18c4.662,0,14.439-0.443,14.594-0.443    c0.774,0,10.555,0.443,19.093,0.443c1.709,0,2.488-0.443,2.488-1.18c0-0.445-0.313-0.885-1.242-0.885    c-1.397,0-4.811-0.299-6.988-0.593c-4.658-0.589-5.588-3.841-6.055-8.134c-0.774-6.206-0.774-17.89-0.774-32.081v-3.55    c0-0.736,0.308-1.182,1.085-1.182l19.094,0.297c0.934,0,1.396,0.293,2.017,0.885c3.104,3.844,10.405,13.751,16.922,21.88    c8.852,11.09,14.285,18.335,20.961,21.735c4.033,2.07,7.917,2.812,16.609,2.812h11.021c2.797,0,3.726-0.296,3.726-1.182    c0-0.445-0.621-0.888-1.394-0.888c-0.929,0-3.106,0-6.055-0.443c-3.879-0.592-10.555-2.219-18.938-10.646    c-9.003-9.166-19.561-22.325-32.291-37.847c13.973-12.271,18.785-23.213,18.785-34.155c0-10.201-6.834-17.447-10.716-20.109    c-8.226-5.614-18.631-6.504-28.409-6.504c-4.813,0-16.609,0.445-18.32,0.445c-0.775,0-10.555-0.445-17.543-0.445    c-1.707,0-2.484,0.296-2.484,1.182c0,0.592,0.621,0.885,1.242,0.885c1.396,0,4.041,0.149,5.282,0.448    c5.121,1.034,6.362,3.397,6.676,8.428c0.308,4.73,0.308,8.87,0.308,31.934V528.622L599.044,528.622z"/>
	</g>
</g>
</svg>